<svg width="2045" height="2278" viewBox="0 0 2045 2278" fill="none" xmlns="http://www.w3.org/2000/svg">
<g style="mix-blend-mode:difference">
<path d="M1708 435.999L1703 441.999C1629 369.999 1628 337.999 1623 241.999L1622 225.999L1621 194.999C1616 87.9992 1614 47.9992 1509 25.9992C1389 0.999256 1172 4.99925 1053 24.9992C963 39.9992 914 100.999 861 165.999C824 211.999 784 260.999 729 289.999C606 353.999 408 275.999 233 207.999C154 176.999 79 147.999 21 135.999L23 127.999C81 139.999 156 168.999 236 199.999C409 267.999 606 344.999 725 281.999C779 253.999 818 205.999 855 159.999C906 96.9992 959 31.9992 1052 16.9992C1171 -3.00075 1389 -8.00075 1511 17.9992C1622 40.9992 1624 85.9992 1629 194.999L1631 225.999V240.999C1636 334.999 1638 365.999 1708 435.999Z" fill="url(#paint0_linear_14_329)"/>
<path d="M1716 468.999L1710 473.999C1637 401.999 1635 370.999 1626 268.999L1624 245.999C1616 136.999 1613 100.999 1510 78.9994C1383 50.9994 1168 43.9994 1050 63.9994C959 79.9994 909 142.999 856 208.999C818 257.999 778 308.999 720 338.999C598 401.999 407 322.999 238 253.999C156 220.999 80 188.999 20 177.999L22 168.999C82 180.999 159 212.999 241 245.999C408 314.999 598 392.999 716 330.999C773 301.999 812 251.999 850 203.999C901 138.999 954 71.9994 1049 55.9994C1168 34.9994 1384 41.9994 1512 69.9994C1621 93.9994 1624 135.999 1633 245.999L1635 267.999C1643 370.999 1646 397.999 1716 468.999Z" fill="url(#paint1_linear_14_329)"/>
<path d="M1733 487.998L1728 493.998C1657 429.998 1650 402.998 1637 309.998V307.998C1621 189.998 1617 164.998 1514 140.998C1375 107.998 1168 76.9983 1046 97.9983C951 113.998 899 180.998 844 252.998C804 305.998 763 359.998 703 391.998C582 455.998 398 372.998 236 299.998C156 263.998 80 228.998 20 216.998L22 208.998C82 220.998 159 255.998 239 291.998C400 363.998 582 445.998 699 383.998C758 352.998 798 299.998 838 247.998C891 177.998 946 105.998 1045 88.9983C1168 68.9983 1376 99.9983 1516 132.998C1624 157.998 1628 185.998 1645 305.998V308.998C1659 400.998 1664 424.998 1733 487.998Z" fill="url(#paint2_linear_14_329)"/>
<path d="M1759 495.999L1755 503.999C1684 474.999 1665 415.999 1647 358.999C1628 300.999 1611 245.999 1542 217.999C1499 200.999 1446 192.999 1394 186.999C1357 181.999 1320 175.999 1284 166.999L1246 156.999C1178 137.999 1107 117.999 1039 130.999C941 150.999 886 223.999 828 301.999C779 366.999 729 433.999 651 464.999C530 512.999 382 432.999 239 354.999C159 311.999 83 270.999 18 255.999L20 246.999C87 262.999 162 303.999 243 347.999C385 423.999 531 503.999 648 456.999C724 426.999 774 360.999 821 296.999C878 221.999 937 142.999 1038 122.999C1107 108.999 1179 128.999 1248 148.999L1286 158.999C1322 167.999 1358 173.999 1395 177.999C1447 184.999 1501 192.999 1544 209.999C1617 238.999 1636 298.999 1655 355.999C1673 413.999 1691 468.999 1759 495.999Z" fill="url(#paint3_linear_14_329)"/>
<path d="M1791 496.999L1789 504.999C1727 490.999 1709 456.999 1689 417.999C1681 401.999 1672 387.999 1663 372.999C1629 323.999 1617 319.999 1572 304.999L1549 296.999C1509 282.999 1466 271.999 1425 261.999C1377 250.999 1329 236.999 1282 219.999L1244 204.999C1174 176.999 1102 147.999 1030 160.999C925 179.999 867 261.999 805 348.999C754 419.999 701 494.999 619 527.999C500 576.999 361 488.999 226 403.999C150 355.999 79 310.999 16 293.999L19 284.999C83 302.999 155 347.999 231 395.999C364 479.999 501 566.999 617 519.999C696 486.999 748 413.999 799 343.999C858 259.999 921 172.999 1029 152.999C1103 138.999 1176 168.999 1247 196.999L1285 211.999C1332 228.999 1379 241.999 1427 252.999C1469 263.999 1512 273.999 1552 287.999L1575 295.999C1620 310.999 1635 316.999 1670 367.999C1680 381.999 1689 397.999 1697 412.999C1717 452.999 1733 483.999 1791 496.999Z" fill="url(#paint4_linear_14_329)"/>
<path d="M1828 491.999L1827 500.999C1772 496.999 1723 466.999 1674 437.999C1637 414.999 1597 390.999 1556 379.999C1504 365.999 1438 333.999 1370 299.999C1250 240.999 1114 173.999 1019 189.999C906 208.999 841 303.999 778 396.999C724 475.999 668 556.999 583 592.999C464 643.999 335 546.999 210 452.999C140 400.999 74 350.999 14 330.999L16 322.999C78 343.999 144 393.999 215 446.999C338 538.999 465 633.999 580 585.999C663 550.999 718 469.999 771 391.999C835 297.999 902 200.999 1017 181.999C1116 164.999 1252 232.999 1373 291.999C1442 325.999 1507 357.999 1558 371.999C1601 383.999 1640 406.999 1679 429.999C1728 459.999 1775 487.999 1828 491.999Z" fill="url(#paint5_linear_14_329)"/>
<path d="M1867 492.999C1774 494.999 1632 487.999 1541 466.999C1466 449.999 1393 397.999 1315 342.999C1215 271.999 1111 198.999 1006 208.999C890 219.999 815 330.999 743 438.999C691 515.999 637 595.999 569 634.999C435 712.999 315 606.999 200 503.999C138 448.999 75 392.999 11 367.999L14 360.999C79 385.999 143 442.999 206 497.999C319 597.999 436 702.999 565 627.999C631 589.999 682 513.999 736 433.999C809 324.999 885 211.999 1005 200.999C1113 190.999 1218 264.999 1319 335.999C1397 389.999 1470 441.999 1542 458.999C1633 479.999 1774 486.999 1867 484.999V492.999Z" fill="url(#paint6_linear_14_329)"/>
<path d="M1907 477V485C1852 485 1800 504 1750 522C1687 546 1621 570 1549 555C1462 537 1381 466 1302 397C1205 313 1105 226 995 234C873 243 792 367 714 487C657 575 602 659 532 700C392 782 288 669 186 558C136.935 496.525 76.9267 444.653 9 405L12 398C77 428 136 491 192 553C296 666 394 772 528 693C596 653 650 570 707 482C786 361 868 235 994 226C1108 218 1209 306 1307 391C1385 459 1466 530 1550 547C1620 561 1682 539 1747 515C1798 496 1851 477 1907 477Z" fill="url(#paint7_linear_14_329)"/>
<path d="M1947 478.999C1901 492.999 1854 522.999 1805 554.999C1724 605.999 1641 658.999 1556 640.999C1463 620.999 1379 535.999 1297 453.999C1200 354.999 1099 253.999 984 259.999C914 263.999 843 349.999 796 406.999L780 426.999C754 457.999 728 495.999 700 535.999C641 619.999 575 715.999 496 763.999C351 850.999 259 729.999 171 611.999C127.973 544.828 71.857 487.012 6 441.999L10 434.999C74 469.999 127 539.999 178 606.999C268 726.999 353 839.999 491 756.999C569 709.999 635 614.999 693 530.999C721 490.999 747 452.999 773 421.999L790 401.999C838 342.999 909 255.999 983 250.999C1102 244.999 1204 347.999 1303 446.999C1384 528.999 1467 612.999 1557 632.999C1639 649.999 1721 597.999 1800 546.999C1850 514.999 1897 484.999 1944 470.999L1947 478.999Z" fill="url(#paint8_linear_14_329)"/>
<path d="M1982 477.999C1930 498.999 1881 544.999 1829 593.999C1753 663.999 1676 736.999 1588 730.999C1472 721.999 1380 615.999 1292 511.999C1197 401.999 1099 286.999 974 300.999C836 315.999 757 449.999 680 578.999C613 691.999 544 808.999 434 848.999C325 887.999 289 862.999 225 763.999C207 734.999 192 706.999 177 680.999C134 602.999 96 534.999 5 479.999L9 472.999C102 528.999 140 596.999 184 675.999C199 702.999 214 730.999 233 759.999C294 855.999 328 877.999 431 840.999C538 802.999 607 686.999 673 574.999C751 443.999 831 307.999 974 292.999C1103 278.999 1203 394.999 1299 506.999C1386 608.999 1476 714.999 1589 722.999C1673 728.999 1749 656.999 1823 587.999C1875 537.999 1925 491.999 1978 469.999L1982 477.999Z" fill="url(#paint9_linear_14_329)"/>
<path d="M2011 483.999C1915 530.999 1876 575.999 1823 639.999L1763 707.999C1723 751.999 1661 810.999 1594 806.999C1472 800.999 1379 680.999 1289 565.999C1194 443.999 1095 317.999 966 331.999C822 346.999 740 487.999 661 624.999C591 743.999 520 867.999 406 907.999C387 931.999 366 944.999 343 946.999C319 949.999 293 938.999 266 914.999H265L204 818.999C187 786.999 173 757.999 160 728.999C124 647.999 92 577.999 3 517.999L7 510.999C99 571.999 131 642.999 168 724.999C181 753.999 194 783.999 211 814.999L272 908.999C297 930.999 321 940.999 342 938.999C363 936.999 382 924.999 400 901.999L401 900.999H402C513 861.999 585 738.999 654 619.999C734 481.999 817 338.999 965 323.999C1099 308.999 1198 436.999 1295 560.999C1385 674.999 1477 791.999 1594 798.999C1657 802.999 1718 744.999 1757 701.999L1816 634.999C1870 569.999 1909 523.999 2007 475.999L2011 483.999Z" fill="url(#paint10_linear_14_329)"/>
<path d="M2032 498.999C1952.24 541.096 1884.72 603.104 1836 678.999C1818 703.999 1797 730.999 1772 760.999C1741 798.999 1674 878.999 1598 874.999C1473 867.999 1378 739.999 1287 615.999C1191 485.999 1092 350.999 959 364.999C812 379.999 728 526.999 647 668.999C576 792.999 502 921.999 385 963.999C366 988.999 345 1002 322 1004C298 1006 272 994.999 245 970.999L244 969.999L188 870.999C172 837.999 160 805.999 149 774.999C117 691.999 90 619.999 1 557.999L6 550.999C97 614.999 125 687.999 156 771.999C168 802.999 180 833.999 195 866.999L251 965.999C276 987.999 300 997.999 321 995.999C342 993.999 361 980.999 379 957.999L380 956.999H381C495 915.999 569 787.999 639 664.999C722 520.999 807 371.999 958 355.999C1096 341.999 1196 478.999 1294 610.999C1384 732.999 1477 859.999 1598 865.999C1670 869.999 1735 791.999 1765 754.999C1790 725.999 1810 697.999 1829 673.999C1882 601.999 1925 545.999 2028 491.999L2032 498.999Z" fill="url(#paint11_linear_14_329)"/>
<path d="M2043 526.999C1939 581.999 1897 642.999 1843 718.999C1824 746.999 1802 776.999 1776 809.999C1739 856.999 1678 934.999 1600 930.999C1472 923.999 1378 790.999 1286 661.999C1190 525.999 1090 386.999 956 400.999C807 416.999 721 566.999 639 711.999C566 839.999 492 971.999 373 1015C354 1039 332 1053 310 1055C286 1057 260 1046 233 1022L232 1021L178 918.999C163 883.999 152 850.999 142 818.999C114 734.999 91 661.999 0 598.999L5 591.999C98 656.999 122 730.999 150 816.999C160 847.999 171 880.999 185 914.999L239 1016C264 1038 287 1048 309 1046C329 1044 349 1032 367 1009L368 1008L369 1007C485 964.999 560 834.999 632 707.999C715 560.999 802 408.999 955 392.999C1094 377.999 1195 519.999 1293 656.999C1383 783.999 1476 915.999 1601 921.999C1674 925.999 1734 850.999 1769 805.999C1795 772.999 1816 742.999 1836 714.999C1890 636.999 1932 575.999 2039 519.999L2043 526.999Z" fill="url(#paint12_linear_14_329)"/>
<path d="M2045 569.999C1961.72 614.794 1891.96 681.095 1843 761.999C1823 789.999 1802 819.999 1776 851.999C1737 900.999 1677 975.999 1601 971.999C1473 965.999 1378 831.999 1286 702.999C1190 567.999 1090 427.999 955 441.999C806 457.999 722 608.999 639 753.999C568 881.999 492 1014 374 1058C355 1082 334 1095 311 1097C287 1100 261 1089 234 1065L233 1064L179 961.999C164 925.999 153 892.999 143 860.999C116 775.999 93 702.999 1 639.999L6 632.999C99 696.999 123 771.999 151 857.999C161 889.999 172 922.999 186 958.999L240 1060C265 1082 288 1092 310 1090C331 1088 350 1075 369 1052V1051H371C487 1009 561 877.999 632 750.999C715 602.999 801 450.999 955 434.999C1094 419.999 1195 561.999 1293 698.999C1384 825.999 1477 957.999 1601 963.999C1673 967.999 1731 894.999 1770 846.999C1796 814.999 1816 785.999 1837 757.999C1892 679.999 1936 618.999 2041 562.999L2045 569.999Z" fill="url(#paint13_linear_14_329)"/>
<path d="M2045 624C1963.37 667.791 1893.15 730.129 1840 806L1774 885C1735 928 1670 1002 1599 998C1472 993 1377 863 1284 738C1187 607 1087 471 953 485C805 500 723 650 644 795C575 922 503 1054 386 1097C367 1121 346 1135 323 1137C299 1139 273 1129 246 1105L245 1104L189 1001C173 966 162 933 150 901C121 815 95 742 4 679L8 672C102 736 128 811 159 898C170 930 181 963 197 997L252 1099C277 1121 301 1131 323 1128C344 1126 363 1114 381 1091L382 1090H383C498 1048 569 917 638 791C718 644 801 492 954 476C1092 462 1193 600 1292 733C1383 857 1478 985 1600 990C1668 993 1731 922 1769 879L1835 801C1894 728 1940 670 2042 616L2045 624Z" fill="url(#paint14_linear_14_329)"/>
<path d="M2044 687.999C1988 714.999 1932 771.999 1873 832.999C1785 923.999 1693 1019 1594 1013C1471 1007 1374 884.999 1281 766.999C1183 640.999 1081 511.999 950 526.999C804 543.999 727 691.999 652 834.999C587 961.999 519 1092 405 1135C385 1160 364 1173 342 1175C318 1177 292 1167 264 1143L263 1142L204 1039C187 1004 174 970.999 162 939.999C129 852.999 100 777.999 7 715.999L12 708.999C107 772.999 136 848.999 170 936.999C182 967.999 195 1001 212 1035L271 1137C296 1159 320 1169 342 1167C362 1165 381 1152 399 1129L400 1128H401C514 1087 581 956.999 646 831.999C721 686.999 799 535.999 949 518.999C1085 503.999 1188 634.999 1288 761.999C1380 878.999 1475 998.999 1595 1005C1690 1010 1780 916.999 1868 827.999C1927 765.999 1984 707.999 2041 680.999L2044 687.999Z" fill="url(#paint15_linear_14_329)"/>
<path d="M2044 760C1989 781 1932 827 1871 876C1779 951 1683 1028 1588 1020C1470 1010 1373 898 1280 790C1174 668 1074 553 946 570C803 588 732 734 664 875C604 1000 541 1128 429 1173C410 1197 390 1210 367 1212C343 1215 317 1204 289 1179H288L224 1076C206 1041 191 1008 178 977C140 889 107 814 12 751L17 744C114 808 147 884 185 973C199 1005 213 1037 231 1071L295 1174C321 1196 345 1206 367 1204C387 1202 406 1189 424 1166V1165H425C535 1123 597 995 657 872C726 728 798 581 945 561C1077 544 1183 666 1286 785C1378 891 1474 1002 1588 1011C1680 1019 1775 943 1866 870C1927 821 1985 774 2041 753L2044 760Z" fill="url(#paint16_linear_14_329)"/>
<path d="M2044 837.999C1988 852.999 1930 885.999 1868 920.999C1772 973.999 1673 1029 1580 1019C1470 1007 1372 907.999 1278 810.999C1169 698.999 1065 592.999 941 610.999C803 632.999 739 775.999 678 913.999C624 1037 568 1164 459 1209C441 1233 420 1246 398 1248C374 1251 347 1240 319 1215V1214L249 1111C229 1077 213 1044 198 1012C154 923.999 117 846.999 19 784.999L23 777.999C106.157 834.258 169.761 914.986 205 1009C220 1040 236 1073 255 1106L325 1209C351 1232 375 1242 397 1240C417 1238 436 1225 453 1203V1202L455 1201C561 1158 617 1033 670 910.999C733 770.999 797 625.999 940 602.999C1068 583.999 1178 695.999 1284 804.999C1377 899.999 1474 998.999 1581 1011C1671 1020 1769 965.999 1864 912.999C1926 877.999 1985 844.999 2042 829.999L2044 837.999Z" fill="url(#paint17_linear_14_329)"/>
<path d="M2043 920C1988 927 1929 946 1866 965C1767 996 1665 1028 1572 1015C1471 1000 1374 914 1280 832C1169 733 1055 632 936 654C803 679 747 819 693 954C645 1075 596 1200 490 1245C375 1294 335 1242 274 1145C253 1112 236 1079 219 1048C170 958 127 881 25 819L30 812C116.684 868.424 184.849 949.108 226 1044C242 1075 260 1108 281 1141C346 1244 383 1281 486 1237C590 1193 638 1070 685 951C740 814 796 672 935 646C1057 623 1173 726 1285 825C1378 907 1474 992 1573 1006C1664 1019 1765 988 1864 957C1926 938 1985 919 2042 912L2043 920Z" fill="url(#paint18_linear_14_329)"/>
<path d="M2043 994.999V1003C1990 1003 1935 1007 1877 1011C1772 1018 1663 1025 1564 1008C1475 992.999 1379 920.999 1286 851.999C1167 762.999 1044 670.999 931 695.999C802 723.999 755 860.999 709 992.999C667 1112 625 1235 523 1281C412 1330 367 1275 302 1180C279 1147 259 1114 241 1083C194.178 988.057 121.799 908.058 32 851.999L36 844.999C144 906.999 192 986.999 248 1079C266 1110 286 1142 309 1175C373 1269 415 1320 519 1273C618 1228 660 1107 701 989.999C748 855.999 796 716.999 929 687.999C1046 661.999 1171 754.999 1291 845.999C1383 913.999 1478 984.999 1566 999.999C1663 1017 1771 1009 1876 1002C1934 997.999 1989 994.999 2043 994.999Z" fill="url(#paint19_linear_14_329)"/>
<path d="M2043 1077L2042 1085C1919 1069 1794 1046 1673 1024L1556 1003C1476 987.999 1387 931.999 1292 872.999C1165 792.999 1034 710.999 926 737.999C802 769.999 762 902.999 724 1032C689 1149 654 1270 556 1316C444 1370 393 1301 329 1215C304 1182 283 1150 263 1119C210.311 1022.58 133.023 941.846 39 884.999L43 877.999C155 939.999 208 1021 269 1114C290 1145 311 1177 335 1210C406 1305 451 1357 552 1309C647 1264 682 1145 716 1030C755 898.999 795 762.999 924 729.999C1035 701.999 1168 784.999 1296 865.999C1390 924.999 1479 979.999 1558 994.999L1675 1016C1795 1038 1920 1061 2043 1077Z" fill="url(#paint20_linear_14_329)"/>
<path d="M2044 1157L2042 1165C1962 1146 1886 1116 1813 1086C1728 1053 1641 1018 1549 999.999C1432 977.999 1336 931.999 1235 883.999L1189 861.999L1145 839.999C1075 803.999 989 759.999 921 779.999C802 814.999 769 945.999 738 1072C710 1186 680 1304 586 1352C479 1407 424 1337 354 1250C328 1217 305 1185 283 1154C216 1061 159 979.999 46 918.999L50 911.999C148.374 969.928 230.838 1051.36 290 1149C312 1180 335 1212 360 1244C428 1329 481 1396 582 1345C673 1299 702 1182 730 1070C762 940.999 795 807.999 919 771.999C990 750.999 1078 795.999 1148 831.999L1192 853.999L1238 875.999C1344 925.999 1435 968.999 1550 991.999C1643 1010 1731 1045 1816 1078C1889 1107 1965 1138 2044 1157Z" fill="url(#paint21_linear_14_329)"/>
<path d="M2044 1232L2041 1240C1962 1213 1890 1170 1820 1129C1735.11 1071.61 1641.11 1029.01 1542 1003C1402.75 972.379 1267.03 927.475 1137 869C1068 839 982 802 916 823C801 860 775 988 750 1112C727 1224 704 1340 613 1389C510 1445 449 1373 379 1290L376 1286L301 1191C237.647 1093.29 151.954 1012.05 51 954L55 947C157.066 1005.51 243.778 1087.43 308 1186C331 1216 355 1248 382 1280L386 1284C456 1368 512 1434 609 1382C696 1335 720 1221 742 1110C768 984 794 854 914 815C982 793 1070 831 1140 862L1186 881C1308 929 1411 968 1544 995C1647 1016 1737 1070 1824 1122C1894 1163 1965 1205 2044 1232Z" fill="url(#paint22_linear_14_329)"/>
<path d="M2044 1300L2041 1308C1959 1275 1889 1221 1820 1169C1738.2 1097.17 1641.57 1044.25 1537 1014C1398.98 985.406 1263.01 947.656 1130 900.999C1061 875.999 976 842.999 913 864.999C800 903.999 779 1030 760 1152C742 1263 723 1377 635 1427C535 1483 470 1409 401 1331L394 1323C366 1291 341 1259 316 1228C248.182 1130.26 159.343 1048.93 56 989.999L60 982.999C164.623 1042.17 254.527 1124.21 323 1223C347 1254 373 1285 400 1317L408 1325C477 1404 537 1473 631 1419C716 1372 734 1259 752 1150C772 1026 793 897.999 910 856.999C976 833.999 1063 866.999 1133 892.999L1182 910.999C1299 948.999 1418 980.999 1539 1006C1649 1029 1739 1097 1825 1163C1893 1214 1964 1268 2044 1300Z" fill="url(#paint23_linear_14_329)"/>
<path d="M2044 1359L2041 1367C1956 1331 1885 1269 1817 1209C1729 1131 1646 1058 1533 1035L1489 1026C1366.1 1001.63 1244.32 971.936 1124 936.999C1052 912.999 971 886.999 910 907.999C798 945.999 781 1071 765 1192C751 1302 736 1416 650 1466C552 1523 486 1450 416 1373L406 1361C377 1330 351 1298 326 1267C255.416 1168.88 164.303 1087.33 59 1028L63 1021C168.987 1081.01 260.75 1163.22 332 1262C357 1293 384 1324 412 1356L423 1367C490 1442 554 1512 646 1458C728 1411 743 1299 757 1191C774 1067 791 938.999 907 899.999C971 877.999 1054 904.999 1126 928.999L1178 945.999C1285 975.999 1385 995.999 1491 1018L1535 1027C1650 1051 1738 1128 1823 1202C1890 1262 1960 1324 2044 1359Z" fill="url(#paint24_linear_14_329)"/>
<path d="M2044 1407L2041 1415C1954.32 1374.18 1876.25 1317.16 1811 1247C1726 1167 1647 1091 1532 1069L1471 1057C1371 1037 1275 1018 1175 992.999L1118 976.999C1047 954.999 968 929.999 909 950.999C797 989.999 782 1114 768 1234C756 1343 743 1456 657 1506C559 1564 490 1488 424 1415L411 1402C382 1370 356 1339 330 1308C257.7 1210.33 165.72 1128.91 60 1069L64 1061C170.579 1121.78 263.238 1204.21 336 1303C362 1333 388 1365 418 1396L430 1410C497 1483 561 1553 652 1499C735 1451 747 1340 760 1233C774 1110 788 982.999 906 942.999C967 921.999 1049 946.999 1120 968.999L1177 984.999C1277 1010 1372 1029 1472 1049L1534 1061C1651 1084 1735 1164 1817 1241C1885 1305 1955 1372 2044 1407Z" fill="url(#paint25_linear_14_329)"/>
<path d="M2035 1446L2032 1454C1944.58 1413.05 1866.09 1355.28 1801 1284C1718 1204 1639 1128 1524 1105L1408 1083C1332 1068 1253 1054 1175 1035L1116 1019C1048 998.999 970 976.999 913 995.999C802 1034 785 1156 768 1274C754 1380 738 1491 653 1541C556 1598 490 1526 420 1450L409 1438L329 1348C257.064 1251.38 166.221 1170.4 62 1110L65 1103C170.842 1163.13 263.107 1244.5 336 1342C361 1371 387 1402 415 1432L426 1444C494 1518 558 1587 649 1533C730 1485 745 1377 760 1273C777 1152 795 1028 910 988.999C970 967.999 1049 990.999 1119 1011L1177 1028C1255 1046 1334 1061 1409 1075L1526 1097C1643 1121 1727 1201 1807 1278C1875 1343 1945 1410 2035 1446Z" fill="url(#paint26_linear_14_329)"/>
<path d="M2011 1479L2007 1487C1920.21 1445.58 1842.66 1387.08 1779 1315C1697 1234 1620 1157 1505 1134C1468 1127 1419 1114 1368 1101C1215 1061 1024 1010 921 1045C812 1081 790 1198 769 1310C750 1412 730 1518 647 1566C549 1622 484 1551 414 1476L405 1467C378 1438 353 1409 329 1381C254 1294 183 1211 67 1152L71 1144C173.691 1202.39 263.495 1280.97 335 1375C359 1403 384 1432 412 1461L420 1470C490 1545 551 1611 643 1558C723 1513 742 1409 761 1309C782 1194 805 1075 918 1037C1024 1002 1216 1052 1370 1093C1421 1106 1469 1119 1506 1126C1623 1149 1706 1231 1785 1309C1852 1375 1920 1443 2011 1479Z" fill="url(#paint27_linear_14_329)"/>
<path d="M1973 1508L1970 1516C1880 1478 1811 1409 1744 1343C1657 1256 1575 1173 1450 1155C1412 1150 1362 1139 1310 1127C1180 1098 1019 1061 926 1087C823 1115 790 1231 759 1343C735 1427 711 1514 657 1563C565 1644 499 1591 415 1507C381 1473 351 1438 322 1405C254.543 1318.65 170.58 1246.58 75 1193L79 1185C189 1242 256 1319 328 1400C357 1433 387 1467 421 1501C505 1584 565 1633 651 1556C704 1510 728 1424 751 1341C783 1226 816 1108 924 1079C1018 1053 1181 1089 1312 1119C1364 1130 1413 1142 1451 1147C1579 1165 1666 1252 1750 1337C1817 1403 1885 1471 1973 1508Z" fill="url(#paint28_linear_14_329)"/>
<path d="M1926 1534L1923 1542C1839.62 1498.01 1765.85 1437.84 1706 1365C1620 1274 1539 1189 1415 1174L1316 1160C1190 1141 1034 1117 940 1141C839 1167 800 1272 762 1374C733 1452 703 1531 647 1577C553 1652 486 1600 409 1524C376 1492 348 1461 320 1430C256.384 1349.2 176.708 1282.46 86 1234L89 1226C180.847 1274.89 261.549 1342.31 326 1424C354 1455 382 1486 415 1518C489 1591 553 1641 642 1570C697 1526 726 1447 754 1371C793 1267 832 1160 938 1132C1033 1108 1191 1132 1317 1152L1416 1166C1543 1181 1628 1271 1712 1360C1775 1427 1841 1497 1926 1534Z" fill="url(#paint29_linear_14_329)"/>
<path d="M1872 1558L1868 1565C1787.63 1519.51 1716.96 1458.7 1660 1386C1583 1299 1511 1219 1400 1193C1303 1172 1058 1173 959 1203C860 1233 816 1323 773 1411C735 1489 696 1570 618 1609C540 1649 470 1600 416 1553C377 1518 339 1481 305 1441C248.967 1370.79 177.885 1314.07 97 1275L101 1267C203 1315 253 1371 311 1435C345 1475 382 1512 422 1547C473 1592 542 1639 614 1602C689 1564 728 1484 765 1407C809 1318 854 1226 956 1195C1057 1164 1304 1163 1402 1185C1515 1210 1588 1293 1666 1380C1727 1448 1789 1518 1872 1558Z" fill="url(#paint30_linear_14_329)"/>
<path d="M1814 1580L1810 1588C1720.17 1541.09 1642.73 1473.58 1584 1391L1563 1364C1494 1276 1448 1218 1335 1206C1243 1196 1069 1227 974 1253C875 1279 825 1356 772 1436C732 1496 692 1559 629 1597C525 1662 454 1598 380 1531L374 1526C346 1501 324 1479 302 1457C247 1401 203 1357 110 1315L114 1307C208 1350 252 1394 309 1451C330 1473 353 1495 380 1520L386 1525C461 1593 526 1651 625 1590C686 1552 726 1491 765 1431C817 1353 870 1271 972 1244C1068 1219 1243 1187 1336 1197C1453 1209 1500 1269 1570 1359L1591 1385C1663 1476 1713 1526 1814 1580Z" fill="url(#paint31_linear_14_329)"/>
<path d="M1756 1602L1752 1610C1663.28 1561.63 1587.75 1492.28 1532 1408L1509 1375C1449 1294 1398 1224 1293 1221C1236 1219 1159 1249 1092 1274C1055 1288 1021 1301 992 1309C896 1335 839 1399 778 1466C732 1518 684 1571 617 1605C495 1666 389 1570 286 1477C230 1426 177 1378 123 1356L126 1348C181 1371 235 1420 292 1471C392 1562 496 1656 613 1598C679 1565 726 1512 772 1460C831 1395 892 1328 990 1302C1019 1294 1053 1281 1089 1267C1157 1241 1234 1211 1293 1213C1402 1216 1455 1288 1515 1371L1539 1403C1610 1497 1655 1546 1756 1602Z" fill="url(#paint32_linear_14_329)"/>
<path d="M1699 1625L1695 1632C1604.17 1575.89 1527.52 1499.57 1471 1409L1452 1381C1408 1317 1349 1230 1270 1229C1221 1229 1165 1267 1111 1304C1073 1330 1037 1355 1004 1365C928 1391 862 1441 799 1489C734.345 1545.37 659.262 1588.52 578 1616C461 1646 382 1578 297 1506C247 1464 195 1420 135 1397L138 1389C200 1412 252 1457 303 1500C385 1571 463 1637 576 1608C656 1587 723 1536 794 1482C858 1433 924 1383 1001 1358C1033 1347 1069 1323 1106 1297C1161 1259 1218 1220 1270 1221C1354 1222 1414 1311 1459 1376L1478 1404C1547 1501 1592 1559 1699 1625Z" fill="url(#paint33_linear_14_329)"/>
<path d="M1647 1650L1644 1657C1590.79 1633.24 1542.97 1598.92 1503.43 1556.12C1463.89 1513.31 1433.47 1462.92 1414 1408C1378 1307 1309 1254 1208 1249C1168 1260 1144 1294 1119 1330C1093 1366 1069 1402 1025 1420H1024C937 1426 854 1458 787 1514C713.229 1572.76 628.119 1615.66 537 1640C439 1650 367 1591 298 1535C251 1497 202 1457 146 1438L149 1430C207 1450 255 1490 303 1528C374 1586 441 1641 535 1631C625 1607 709 1565 782 1507C850 1451 934 1417 1022 1412C1063 1395 1088 1359 1112 1325C1138 1287 1163 1252 1207 1241H1208C1313 1245 1385 1301 1422 1405C1441 1458.92 1470.73 1508.43 1509.41 1550.54C1548.08 1592.65 1594.89 1626.49 1647 1650Z" fill="url(#paint34_linear_14_329)"/>
<path d="M1604 1677L1601 1684C1548.06 1659.65 1500.74 1624.6 1462.01 1581.05C1423.29 1537.51 1394 1486.42 1376 1431C1343 1329 1276 1274 1176 1270C1135 1285 1124 1321 1113 1361C1102 1401 1089 1448 1038 1473H1037C949 1476 863 1502 789 1548C708 1598 618 1633 525 1652C431 1659 369 1612 303 1563C259 1530 212 1497 155 1479L158 1471C216 1488 263 1523 308 1556C373 1604 434 1650 524 1643C616 1625 704 1590 785 1541C860 1494 946 1468 1035 1465C1082 1441 1094 1399 1106 1358C1117 1317 1128 1278 1174 1262H1175C1280 1266 1350 1322 1384 1428C1401.43 1482.47 1429.98 1532.74 1467.86 1575.6C1505.73 1618.46 1552.09 1652.99 1604 1677Z" fill="url(#paint35_linear_14_329)"/>
<path d="M1572 1708L1569 1715C1513.48 1686.68 1464.24 1647.47 1424.21 1599.71C1384.18 1551.95 1354.18 1496.61 1336 1437C1301 1326 1236 1283 1135 1305C1112 1348 1106 1399 1119 1447V1448C1117 1476 1108 1497 1093 1508C1078 1520 1059 1523 1035 1519C970 1525 906 1541 845 1565C750 1607 652 1641 552 1667C444 1681 379 1639 309 1595C266 1567 221 1538 163 1520L165 1512C225 1530 270 1559 314 1587C382 1631 446 1672 551 1658C650 1632 748 1598 842 1557C904 1532 968 1517 1035 1510C1058 1514 1076 1511 1088 1502C1100 1492 1108 1473 1110 1448C1098 1398 1104 1344 1129 1299L1130 1297H1132C1237 1274 1308 1320 1344 1434C1361.66 1492.64 1390.95 1547.12 1430.12 1594.2C1469.29 1641.28 1517.54 1679.98 1572 1708Z" fill="url(#paint36_linear_14_329)"/>
<path d="M1554 1744L1551 1751C1495.35 1722.56 1446.19 1682.91 1406.61 1634.55C1367.03 1586.19 1337.88 1530.17 1321 1470C1287 1359 1222 1315 1121 1336C1102 1385 1101 1440 1120 1489V1491C1121 1521 1114 1543 1100 1555C1085 1567 1066 1570 1041 1566C975 1573 910 1587 847 1607C749 1643 648 1672 546 1695C440 1707 377 1669 309 1629C267 1604 223 1578 166 1562L168 1553C227 1570 271 1596 314 1622C380 1661 442 1699 545 1687C646 1664 746 1634 845 1599C908 1579 974 1565 1040 1557H1041C1065 1561 1083 1558 1094 1548C1105 1538 1112 1519 1111 1491C1091 1439 1092 1382 1114 1331V1329L1117 1328C1222 1305 1293 1352 1328 1467C1344.64 1526.21 1373.29 1581.36 1412.17 1629.02C1451.05 1676.67 1499.33 1715.81 1554 1744Z" fill="url(#paint37_linear_14_329)"/>
<path d="M1553 1783L1549 1791C1493.64 1762.82 1444.71 1723.48 1405.3 1675.47C1365.89 1627.45 1336.85 1571.79 1320 1512C1287 1402 1221 1358 1120 1377C1101 1427 1101 1483 1120 1533V1534C1121 1564 1115 1586 1101 1599C1087 1611 1067 1614 1042 1610C976 1619 911 1633 848 1651C749 1682 647 1709 546 1731C441 1743 375 1706 305 1667C263 1644 221 1620 167 1604L169 1596C224 1613 267 1636 309 1660C378 1698 442 1734 545 1723C645 1701 747 1674 845 1643C909 1624 975 1611 1041 1602H1042C1066 1605 1084 1602 1095 1592C1106 1582 1113 1562 1112 1534C1092 1482 1092 1424 1113 1372L1114 1369H1116C1222 1348 1293 1395 1328 1509C1344.62 1567.7 1373.18 1622.34 1411.89 1669.49C1450.61 1716.64 1498.65 1755.28 1553 1783Z" fill="url(#paint38_linear_14_329)"/>
<path d="M1560 1817L1556 1824C1502.23 1797.25 1454.51 1759.76 1415.81 1713.83C1377.11 1667.91 1348.25 1614.53 1331 1557C1297 1452 1232 1409 1134 1427C1111 1475 1106 1529 1119 1580C1118 1610 1110 1630 1095 1643C1080 1656 1061 1659 1036 1656C972 1666 907 1679 844 1693C748 1719 649 1742 550 1761C448 1771 375 1738 297 1703C254 1682 209 1665 163 1651L165 1643C212 1657 257 1674 301 1695C377 1730 449 1762 549 1752C647 1733 746 1710 842 1685C906 1670 971 1658 1035 1647H1036C1059 1651 1077 1647 1089 1637C1101 1627 1109 1607 1110 1580C1097 1527 1103 1471 1127 1422L1128 1420H1130C1233 1400 1303 1445 1339 1554C1355.84 1610.65 1384.15 1663.22 1422.16 1708.47C1460.18 1753.71 1507.1 1790.65 1560 1817Z" fill="url(#paint39_linear_14_329)"/>
<path d="M1573 1842L1570 1850C1518.49 1826.51 1472.47 1792.48 1434.92 1750.11C1397.37 1707.74 1369.12 1657.96 1352 1604C1315 1505 1252 1466 1157 1485C1128 1528 1115 1580 1120 1632V1633C1110 1687 1079 1711 1028 1706C925 1756 725 1771 592 1781L558 1783C458 1791 374 1766 286 1739C244 1727 202 1714 157 1704L158 1696C204 1706 247 1718 288 1731C376 1757 459 1782 557 1775L592 1772C724 1762 924 1748 1026 1697H1028C1076 1702 1103 1681 1112 1631C1107 1577 1121 1523 1151 1478L1152 1476H1154C1253 1457 1323 1498 1360 1600C1376.6 1652.99 1404.14 1701.91 1440.83 1743.59C1477.52 1785.28 1522.55 1818.8 1573 1842Z" fill="url(#paint40_linear_14_329)"/>
<path d="M1592 1861L1588 1869C1539.53 1850.02 1495.8 1820.68 1459.87 1783.02C1423.94 1745.36 1396.68 1700.3 1380 1651C1341 1561 1277 1527 1187 1547C1151 1586 1128 1635 1121 1688V1689C1103 1739 1068 1762 1018 1757C925 1794 780 1796 663 1797L568 1799C462 1804 357 1789 256 1775L148 1761L149 1753L258 1767C358 1781 463 1796 568 1791L663 1789C779 1787 924 1785 1016 1749H1018C1065 1754 1096 1734 1113 1687C1120 1632 1144 1581 1182 1541L1183 1540H1184C1278 1518 1347 1555 1388 1649C1404.52 1697.06 1431.33 1740.93 1466.57 1777.55C1501.8 1814.16 1544.61 1842.65 1592 1861Z" fill="url(#paint41_linear_14_329)"/>
<path d="M1613 1876L1611 1885C1568.11 1873.71 1528.55 1852.29 1495.66 1822.53C1462.77 1792.77 1437.51 1755.55 1422 1714C1386 1638 1326 1601 1243 1605C1189 1617 1163 1658 1135 1702C1107 1748 1077 1796 1013 1813C921 1837 806 1828 694 1820C641 1815 591 1811 546 1811C482 1811 418 1814 355 1816C284 1818 210 1821 137 1820V1812C210 1813 284 1810 355 1807C468.224 1798.14 582.016 1799.47 695 1811C806 1820 920 1829 1011 1805C1071 1788 1100 1742 1128 1698C1155 1654 1183 1609 1241 1597C1328 1592 1391 1631 1429 1710C1444.12 1750.39 1468.72 1786.56 1500.75 1815.45C1532.77 1844.34 1571.27 1865.11 1613 1876Z" fill="url(#paint42_linear_14_329)"/>
<path d="M1638 1888L1636 1897C1554 1882 1494 1836 1458 1761C1420 1695 1361 1666 1285 1675C1225 1685 1188 1726 1149 1768C1109 1812 1067 1857 997 1868C914 1881 824 1863 738 1845C679 1832 618 1820 560 1818C472 1815 387 1834 304 1851C245 1865 186 1875 126 1882L125 1874C185 1867 244 1857 302 1843C386 1825 472 1807 560 1810C619 1812 680 1824 740 1837C825 1854 914 1873 996 1860C1063 1849 1104 1805 1143 1762C1181 1720 1220 1677 1283 1667C1364 1658 1425 1688 1466 1756C1481.23 1790.71 1504.98 1821.01 1535.05 1844.08C1565.12 1867.16 1600.53 1882.27 1638 1888Z" fill="url(#paint43_linear_14_329)"/>
<path d="M1664 1899L1662 1907C1612 1892 1571 1859 1530 1827C1468 1779 1409 1733 1328 1746C1264 1756 1215 1795 1167 1833C1114 1876 1059 1920 980 1924C901 1929 828 1900 757 1873C698 1851 637 1828 574 1823C478 1816 382 1853 291 1888C233 1910 173 1933 114 1945L112 1937C170 1925 230 1902 288 1880C381 1844 476 1807 575 1815C639 1819 700 1843 760 1865C830 1892 903 1920 980 1916C1056 1911 1110 1868 1162 1826C1210 1788 1260 1748 1327 1738C1412 1724 1475 1773 1535 1820C1575 1852 1616 1884 1664 1899Z" fill="url(#paint44_linear_14_329)"/>
<path d="M1689 1910L1688 1919C1639 1910 1598 1888 1558 1867C1508 1840 1461 1814 1400 1815C1321 1815 1254 1855 1189 1894C1121 1935 1050 1977 965 1974C889 1972 826 1937 766 1903C718 1877 668 1849 611 1837C501 1815 390 1873 282 1928C223 1959 161 1990 101 2007L99 1999C158 1982 216 1952 279 1920C387 1864 499 1806 613 1829C670 1840 721 1869 770 1896C832 1930 891 1963 965 1966C1048 1968 1117 1927 1184 1886C1250 1847 1318 1806 1399 1806C1463 1805 1513 1832 1562 1859C1601 1880 1642 1902 1689 1910Z" fill="url(#paint45_linear_14_329)"/>
<path d="M1713 1931C1662 1935 1617 1921 1574 1907C1532 1895 1490 1881 1442 1883C1362 1886 1288 1922 1215 1957C1132 1996 1046 2038 952 2028C874 2020 820 1976 767 1934C724 1899 680 1863 623 1847C512 1816 389 1894 269 1969C206 2010 145 2048 90 2067L87 2060C142 2040 202 2003 265 1962C386 1886 511 1807 625 1839C683 1856 729 1892 773 1927C827 1971 878 2012 953 2020C1044 2029 1126 1990 1211 1949C1285 1914 1360 1878 1441 1875C1491 1873 1534 1886 1576 1899C1621 1913 1663 1926 1712 1923L1713 1931Z" fill="url(#paint46_linear_14_329)"/>
<path d="M1734 1948C1689 1952 1644 1952 1599 1950C1548 1947 1497 1949 1447 1954C1384 1963 1316 1990 1244 2019C1139 2060 1031 2103 934 2088C855 2076 809 2021 765 1967C733 1929 701 1889 655 1865C545 1809 392 1918 258 2015C192 2062 130 2107 80 2127L77 2119C126 2099 188 2055 253 2008C390 1910 545 1799 659 1858C706 1882 739 1923 772 1962C817 2016 859 2068 935 2080C1030 2095 1137 2052 1241 2011C1313 1982 1381 1955 1446 1946C1497 1940 1548 1939 1599 1942C1644 1944 1688 1943 1733 1940L1734 1948Z" fill="url(#paint47_linear_14_329)"/>
<path d="M1751 1969C1698 1974 1644 1985 1591 1995C1553 2002 1514 2010 1475 2015C1414 2024 1344 2049 1269 2074C1149 2115 1024 2159 923 2139C840 2122 801 2060 763 2000C736 1957 708 1912 663 1884C576 1830 501 1887 428 1942L398 1965C368 1986 341 2007 314 2028C238 2087 172 2138 71 2182L68 2174C168 2130 233 2080 309 2021L393 1958L423 1935C494 1881 575 1820 667 1877C713 1905 742 1951 770 1995C808 2057 845 2114 924 2130C1023 2150 1147 2107 1266 2066C1341 2040 1411 2015 1474 2006C1512 2001 1552 1993 1589 1986C1642 1975 1696 1966 1750 1960L1751 1969Z" fill="url(#paint48_linear_14_329)"/>
<path d="M1762 1997C1713 2000 1668 2016 1620 2034C1581 2049 1539 2064 1495 2070C1435 2079 1365 2101 1290 2125C1157 2167 1020 2210 915 2187C829 2168 795 2101 763 2036C739 1989 714 1940 670 1910C583 1851 504 1915 434 1972L401 1997L313 2068C236 2131 170 2186 66 2233L62 2225C165 2179 231 2124 308 2062C335 2039 364 2015 396 1991L428 1965C501 1907 582 1840 674 1903C721 1935 746 1984 770 2032C803 2098 835 2161 917 2179C1020 2202 1156 2158 1287 2117C1363 2093 1434 2071 1494 2062C1537 2056 1578 2041 1618 2026C1663 2009 1711 1992 1762 1989V1997Z" fill="url(#paint49_linear_14_329)"/>
<path d="M1767 2025V2034C1733 2034 1713 2045 1692 2057C1681 2063 1670 2069 1658 2073C1603 2095 1573 2107 1505 2118C1447 2126 1378 2147 1305 2169C1171 2209 1021 2254 912 2231C822 2212 792 2142 762 2075C741 2026 719 1975 673 1943C587 1882 506 1949 435 2008L403 2034L311 2110C237.572 2178.55 153.899 2235.23 63 2278L60 2270C150.183 2227.46 233.181 2171.12 306 2103L398 2027L429 2001C499 1943 586 1871 678 1936C725 1969 748 2021 770 2072C799 2140 827 2205 913 2223C1019 2246 1169 2201 1302 2161C1375 2139 1444 2118 1503 2109C1567.3 2099.61 1629.53 2079.32 1687 2049C1710 2037 1730 2025 1767 2025Z" fill="url(#paint50_linear_14_329)"/>
</g>
<defs>
<linearGradient id="paint0_linear_14_329" x1="864.7" y1="441.599" x2="864.7" y2="-0.000749458" gradientUnits="userSpaceOnUse">
<stop offset="0.1"/>
<stop offset="1" stop-color="#FF9900"/>
</linearGradient>
<linearGradient id="paint1_linear_14_329" x1="868" y1="474.399" x2="868" y2="43.9994" gradientUnits="userSpaceOnUse">
<stop offset="0.1"/>
<stop offset="1" stop-color="#FF9900"/>
</linearGradient>
<linearGradient id="paint2_linear_14_329" x1="876.7" y1="494.098" x2="876.7" y2="82.5983" gradientUnits="userSpaceOnUse">
<stop offset="0.1"/>
<stop offset="1" stop-color="#FF9900"/>
</linearGradient>
<linearGradient id="paint3_linear_14_329" x1="888.2" y1="503.999" x2="888.2" y2="118.699" gradientUnits="userSpaceOnUse">
<stop offset="0.1"/>
<stop offset="1" stop-color="#FF9900"/>
</linearGradient>
<linearGradient id="paint4_linear_14_329" x1="903.6" y1="541.999" x2="903.6" y2="149.299" gradientUnits="userSpaceOnUse">
<stop offset="0.1"/>
<stop offset="1" stop-color="#FF9900"/>
</linearGradient>
<linearGradient id="paint5_linear_14_329" x1="920.6" y1="607.199" x2="920.6" y2="179.199" gradientUnits="userSpaceOnUse">
<stop offset="0.1"/>
<stop offset="1" stop-color="#FF9900"/>
</linearGradient>
<linearGradient id="paint6_linear_14_329" x1="939" y1="662.099" x2="939" y2="199.699" gradientUnits="userSpaceOnUse">
<stop offset="0.1"/>
<stop offset="1" stop-color="#FF9900"/>
</linearGradient>
<linearGradient id="paint7_linear_14_329" x1="958" y1="728.3" x2="958" y2="225.5" gradientUnits="userSpaceOnUse">
<stop offset="0.1"/>
<stop offset="1" stop-color="#FF9900"/>
</linearGradient>
<linearGradient id="paint8_linear_14_329" x1="976.4" y1="793.399" x2="976.4" y2="250.999" gradientUnits="userSpaceOnUse">
<stop offset="0.1"/>
<stop offset="1" stop-color="#FF9900"/>
</linearGradient>
<linearGradient id="paint9_linear_14_329" x1="993.2" y1="866.399" x2="993.2" y2="291.599" gradientUnits="userSpaceOnUse">
<stop offset="0.1"/>
<stop offset="1" stop-color="#FF9900"/>
</linearGradient>
<linearGradient id="paint10_linear_14_329" x1="1006.8" y1="947.699" x2="1006.8" y2="322.399" gradientUnits="userSpaceOnUse">
<stop offset="0.1"/>
<stop offset="1" stop-color="#FF9900"/>
</linearGradient>
<linearGradient id="paint11_linear_14_329" x1="1016.7" y1="1004.6" x2="1016.7" y2="355.199" gradientUnits="userSpaceOnUse">
<stop offset="0.1"/>
<stop offset="1" stop-color="#FF9900"/>
</linearGradient>
<linearGradient id="paint12_linear_14_329" x1="1021.6" y1="1055" x2="1021.6" y2="391.699" gradientUnits="userSpaceOnUse">
<stop offset="0.1"/>
<stop offset="1" stop-color="#FF9900"/>
</linearGradient>
<linearGradient id="paint13_linear_14_329" x1="1022.7" y1="1097.5" x2="1022.7" y2="433.599" gradientUnits="userSpaceOnUse">
<stop offset="0.1"/>
<stop offset="1" stop-color="#FF9900"/>
</linearGradient>
<linearGradient id="paint14_linear_14_329" x1="1024.1" y1="1137.2" x2="1024.1" y2="475.3" gradientUnits="userSpaceOnUse">
<stop offset="0.1"/>
<stop offset="1" stop-color="#FF9900"/>
</linearGradient>
<linearGradient id="paint15_linear_14_329" x1="1025.7" y1="1175.4" x2="1025.7" y2="518.099" gradientUnits="userSpaceOnUse">
<stop offset="0.1"/>
<stop offset="1" stop-color="#FF9900"/>
</linearGradient>
<linearGradient id="paint16_linear_14_329" x1="1028" y1="1212.4" x2="1028" y2="559.7" gradientUnits="userSpaceOnUse">
<stop offset="0.1"/>
<stop offset="1" stop-color="#FF9900"/>
</linearGradient>
<linearGradient id="paint17_linear_14_329" x1="1031.2" y1="1248.6" x2="1031.2" y2="601.099" gradientUnits="userSpaceOnUse">
<stop offset="0.1"/>
<stop offset="1" stop-color="#FF9900"/>
</linearGradient>
<linearGradient id="paint18_linear_14_329" x1="1034.2" y1="1263.5" x2="1034.2" y2="642.6" gradientUnits="userSpaceOnUse">
<stop offset="0.1"/>
<stop offset="1" stop-color="#FF9900"/>
</linearGradient>
<linearGradient id="paint19_linear_14_329" x1="1037.4" y1="1299.2" x2="1037.4" y2="683.399" gradientUnits="userSpaceOnUse">
<stop offset="0.1"/>
<stop offset="1" stop-color="#FF9900"/>
</linearGradient>
<linearGradient id="paint20_linear_14_329" x1="1041.3" y1="1335.2" x2="1041.3" y2="724.499" gradientUnits="userSpaceOnUse">
<stop offset="0.1"/>
<stop offset="1" stop-color="#FF9900"/>
</linearGradient>
<linearGradient id="paint21_linear_14_329" x1="1044.7" y1="1371.7" x2="1044.7" y2="766.8" gradientUnits="userSpaceOnUse">
<stop offset="0.1"/>
<stop offset="1" stop-color="#FF9900"/>
</linearGradient>
<linearGradient id="paint22_linear_14_329" x1="1047.6" y1="1408.8" x2="1047.6" y2="808.3" gradientUnits="userSpaceOnUse">
<stop offset="0.1"/>
<stop offset="1" stop-color="#FF9900"/>
</linearGradient>
<linearGradient id="paint23_linear_14_329" x1="1050.1" y1="1446.7" x2="1050.1" y2="849.599" gradientUnits="userSpaceOnUse">
<stop offset="0.1"/>
<stop offset="1" stop-color="#FF9900"/>
</linearGradient>
<linearGradient id="paint24_linear_14_329" x1="1051.5" y1="1486.1" x2="1051.5" y2="891.899" gradientUnits="userSpaceOnUse">
<stop offset="0.1"/>
<stop offset="1" stop-color="#FF9900"/>
</linearGradient>
<linearGradient id="paint25_linear_14_329" x1="1052.1" y1="1526.5" x2="1052.1" y2="934.799" gradientUnits="userSpaceOnUse">
<stop offset="0.1"/>
<stop offset="1" stop-color="#FF9900"/>
</linearGradient>
<linearGradient id="paint26_linear_14_329" x1="1048.4" y1="1561.2" x2="1048.4" y2="980.599" gradientUnits="userSpaceOnUse">
<stop offset="0.1"/>
<stop offset="1" stop-color="#FF9900"/>
</linearGradient>
<linearGradient id="paint27_linear_14_329" x1="1038.8" y1="1585.8" x2="1038.8" y2="1025" gradientUnits="userSpaceOnUse">
<stop offset="0.1"/>
<stop offset="1" stop-color="#FF9900"/>
</linearGradient>
<linearGradient id="paint28_linear_14_329" x1="1024" y1="1602.8" x2="1024" y2="1069.8" gradientUnits="userSpaceOnUse">
<stop offset="0.1"/>
<stop offset="1" stop-color="#FF9900"/>
</linearGradient>
<linearGradient id="paint29_linear_14_329" x1="1005.8" y1="1613.3" x2="1005.8" y2="1122.2" gradientUnits="userSpaceOnUse">
<stop offset="0.1"/>
<stop offset="1" stop-color="#FF9900"/>
</linearGradient>
<linearGradient id="paint30_linear_14_329" x1="984.7" y1="1623.8" x2="984.7" y2="1170.2" gradientUnits="userSpaceOnUse">
<stop offset="0.1"/>
<stop offset="1" stop-color="#FF9900"/>
</linearGradient>
<linearGradient id="paint31_linear_14_329" x1="962.3" y1="1624.2" x2="962.3" y2="1195.2" gradientUnits="userSpaceOnUse">
<stop offset="0.1"/>
<stop offset="1" stop-color="#FF9900"/>
</linearGradient>
<linearGradient id="paint32_linear_14_329" x1="939.1" y1="1624.3" x2="939.1" y2="1212.9" gradientUnits="userSpaceOnUse">
<stop offset="0.1"/>
<stop offset="1" stop-color="#FF9900"/>
</linearGradient>
<linearGradient id="paint33_linear_14_329" x1="917.1" y1="1632.4" x2="917.1" y2="1220.9" gradientUnits="userSpaceOnUse">
<stop offset="0.1"/>
<stop offset="1" stop-color="#FF9900"/>
</linearGradient>
<linearGradient id="paint34_linear_14_329" x1="896.7" y1="1657.2" x2="896.7" y2="1241" gradientUnits="userSpaceOnUse">
<stop offset="0.1"/>
<stop offset="1" stop-color="#FF9900"/>
</linearGradient>
<linearGradient id="paint35_linear_14_329" x1="879.9" y1="1684.3" x2="879.9" y2="1261.8" gradientUnits="userSpaceOnUse">
<stop offset="0.1"/>
<stop offset="1" stop-color="#FF9900"/>
</linearGradient>
<linearGradient id="paint36_linear_14_329" x1="867.6" y1="1715.2" x2="867.6" y2="1291.4" gradientUnits="userSpaceOnUse">
<stop offset="0.1"/>
<stop offset="1" stop-color="#FF9900"/>
</linearGradient>
<linearGradient id="paint37_linear_14_329" x1="860.3" y1="1751" x2="860.3" y2="1322.7" gradientUnits="userSpaceOnUse">
<stop offset="0.1"/>
<stop offset="1" stop-color="#FF9900"/>
</linearGradient>
<linearGradient id="paint38_linear_14_329" x1="859.6" y1="1790.8" x2="859.6" y2="1364.1" gradientUnits="userSpaceOnUse">
<stop offset="0.1"/>
<stop offset="1" stop-color="#FF9900"/>
</linearGradient>
<linearGradient id="paint39_linear_14_329" x1="861.2" y1="1824" x2="861.2" y2="1415.3" gradientUnits="userSpaceOnUse">
<stop offset="0.1"/>
<stop offset="1" stop-color="#FF9900"/>
</linearGradient>
<linearGradient id="paint40_linear_14_329" x1="864.9" y1="1849.5" x2="864.9" y2="1471.6" gradientUnits="userSpaceOnUse">
<stop offset="0.1"/>
<stop offset="1" stop-color="#FF9900"/>
</linearGradient>
<linearGradient id="paint41_linear_14_329" x1="869.8" y1="1869.2" x2="869.8" y2="1533.8" gradientUnits="userSpaceOnUse">
<stop offset="0.1"/>
<stop offset="1" stop-color="#FF9900"/>
</linearGradient>
<linearGradient id="paint42_linear_14_329" x1="875.4" y1="1884.6" x2="875.4" y2="1596.8" gradientUnits="userSpaceOnUse">
<stop offset="0.1"/>
<stop offset="1" stop-color="#FF9900"/>
</linearGradient>
<linearGradient id="paint43_linear_14_329" x1="881.3" y1="1896.6" x2="881.3" y2="1665.3" gradientUnits="userSpaceOnUse">
<stop offset="0.1" stop-opacity="0.8"/>
<stop offset="1" stop-color="#FF9900"/>
</linearGradient>
<linearGradient id="paint44_linear_14_329" x1="888" y1="1944.9" x2="888" y2="1735.3" gradientUnits="userSpaceOnUse">
<stop offset="0.1" stop-opacity="0.7"/>
<stop offset="1" stop-color="#FF9900"/>
</linearGradient>
<linearGradient id="paint45_linear_14_329" x1="894.1" y1="2007" x2="894.1" y2="1805.7" gradientUnits="userSpaceOnUse">
<stop offset="0.1" stop-opacity="0.6"/>
<stop offset="1" stop-color="#FF9900"/>
</linearGradient>
<linearGradient id="paint46_linear_14_329" x1="899.9" y1="2067.4" x2="899.9" y2="1831.6" gradientUnits="userSpaceOnUse">
<stop offset="0.1" stop-color="#505050"/>
<stop offset="1" stop-color="#FF9900"/>
</linearGradient>
<linearGradient id="paint47_linear_14_329" x1="905.3" y1="2126.6" x2="905.3" y2="1841.6" gradientUnits="userSpaceOnUse">
<stop offset="0.1" stop-opacity="0.4"/>
<stop offset="1" stop-color="#FF9900"/>
</linearGradient>
<linearGradient id="paint48_linear_14_329" x1="909.3" y1="2181.5" x2="909.3" y2="1853.8" gradientUnits="userSpaceOnUse">
<stop offset="0.1" stop-opacity="0.3"/>
<stop offset="1" stop-color="#FF9900"/>
</linearGradient>
<linearGradient id="paint49_linear_14_329" x1="912.3" y1="2232.8" x2="912.3" y2="1877.4" gradientUnits="userSpaceOnUse">
<stop offset="0.1" stop-opacity="0.2"/>
<stop offset="0.932292" stop-color="#FF9900"/>
</linearGradient>
<linearGradient id="paint50_linear_14_329" x1="913.3" y1="2278" x2="913.3" y2="1910.4" gradientUnits="userSpaceOnUse">
<stop offset="0.1" stop-opacity="0.1"/>
<stop offset="1" stop-color="#FF9900"/>
</linearGradient>
</defs>
</svg>
